<svg width="1547" height="423" xmlns="http://www.w3.org/2000/svg" xmlns:xlink="http://www.w3.org/1999/xlink" xml:space="preserve" overflow="hidden"><defs><filter id="fx0" x="-10%" y="-10%" width="120%" height="120%" filterUnits="userSpaceOnUse" primitiveUnits="userSpaceOnUse"><feComponentTransfer color-interpolation-filters="sRGB"><feFuncR type="discrete" tableValues="0 0"/><feFuncG type="discrete" tableValues="0 0"/><feFuncB type="discrete" tableValues="0 0"/><feFuncA type="linear" slope="0.4" intercept="0"/></feComponentTransfer><feGaussianBlur stdDeviation="6.11111 6.11111"/></filter><filter id="fx1" x="-10%" y="-10%" width="120%" height="120%" filterUnits="userSpaceOnUse" primitiveUnits="userSpaceOnUse"><feComponentTransfer color-interpolation-filters="sRGB"><feFuncR type="discrete" tableValues="0 0"/><feFuncG type="discrete" tableValues="0 0"/><feFuncB type="discrete" tableValues="0 0"/><feFuncA type="linear" slope="0.4" intercept="0"/></feComponentTransfer><feGaussianBlur stdDeviation="6.11111 6.11111"/></filter><clipPath id="clip2"><rect x="746" y="570" width="1547" height="423"/></clipPath><clipPath id="clip3"><path d="M943 581.5C840.551 581.5 757.5 664.551 757.5 767 757.5 869.449 840.551 952.5 943 952.5L2076 952.5C2178.45 952.5 2261.5 869.449 2261.5 767 2261.5 664.551 2178.45 581.5 2076 581.5ZM746 570 2293 570 2293 993 746 993Z" fill-rule="evenodd" clip-rule="evenodd"/></clipPath><clipPath id="clip4"><rect x="-3" y="-3" width="1556" height="420"/></clipPath><clipPath id="clip5"><rect x="0" y="0" width="1549" height="416"/></clipPath><clipPath id="clip6"><rect x="104" y="56" width="692" height="206"/></clipPath><clipPath id="clip7"><rect x="0" y="0" width="897" height="386"/></clipPath></defs><g clip-path="url(#clip2)" transform="translate(-746 -570)"><g clip-path="url(#clip3)"><g clip-path="url(#clip4)" filter="url(#fx0)" transform="translate(745 569)"><g clip-path="url(#clip5)"><path d="M22.2228 207.723C22.2228 105.274 105.274 22.2228 207.723 22.2228L1340.72 22.2228C1443.17 22.2228 1526.22 105.274 1526.22 207.723L1526.22 207.723C1526.22 310.172 1443.17 393.223 1340.72 393.223L207.723 393.223C105.274 393.223 22.2228 310.172 22.2228 207.723Z" stroke="#000000" stroke-width="5" stroke-miterlimit="8" fill="#D9D9D9" fill-rule="evenodd"/></g></g><g clip-path="url(#clip6)" filter="url(#fx1)" transform="translate(1070 608)"><g clip-path="url(#clip7)"><path d="M67.8369-119.399C67.8369-119.507 67.8369-119.614 67.8369-119.722 68.4814-122.515 69.6094-124.824 71.2207-126.65 71.8652-127.725 73.0469-128.262 74.7656-128.262 75.3027-128.262 75.8398-128.208 76.3769-128.101 78.3105-127.886 80.7275-126.543 83.6279-124.072 83.8428-123.965 84.0039-123.75 84.1113-123.428 85.1855-121.064 85.9912-119.722 86.5283-119.399 86.6357-119.399 86.6894-119.346 86.6894-119.238 88.623-118.701 101.621-118.164 125.684-117.627 136.211-117.412 142.737-117.224 145.261-117.063 147.786-116.902 149.585-116.714 150.659-116.499 151.841-116.177 152.673-115.666 153.157-114.968 153.64-114.27 154.473-111.719 155.654-107.314 156.943-101.836 157.588-97.915 157.588-95.5518 157.588-93.6182 156.943-91.9531 155.654-90.5566 154.902-89.8047 154.016-89.1601 152.996-88.623 151.975-88.0859 151.089-87.8174 150.337-87.8174 148.726-87.8174 147.061-88.3545 145.342-89.4287 145.342-89.4287 145.073-89.6435 144.536-90.0732 143.999-90.5029 143.677-90.7178 143.569-90.7178 143.247-91.04 143.086-91.4697 143.086-92.0068L143.086-97.0019C143.086-98.6133 143.032-99.8486 142.925-100.708L142.603-100.708C139.38-101.138 128.315-101.353 109.409-101.353 103.823-101.353 97.5928-101.353 90.7178-101.353 56.5576-101.138 35.5029-100.762 27.5537-100.225 25.5127-100.01 24.0088-99.7412 23.042-99.4189 22.5049-98.1299 22.0215-94.9072 21.5918-89.751 21.2695-86.206 20.9473-84.0576 20.625-83.3057 20.3027-82.5537 19.8999-81.936 19.4165-81.4526 18.9331-80.9692 18.3154-80.6201 17.5635-80.4053 16.8115-80.1904 16.0327-80.083 15.227-80.083 14.4214-80.083 13.5889-80.2978 12.7295-80.7275 9.39941-82.124 7.73437-85.2393 7.73437-90.0732 7.73437-92.0068 7.94922-94.3701 8.37891-97.1631 8.70117-99.956 9.29199-103.018 10.1514-106.348 11.1182-109.785 11.8164-111.88 12.2461-112.632 13.3203-114.351 14.5288-115.425 15.8716-115.854 17.2144-116.284 20.249-116.66 24.9756-116.982 27.2314-117.09 35.8252-117.305 50.7568-117.627L54.1406-117.627C61.5527-117.734 65.8496-117.896 67.0312-118.11 67.4609-118.218 67.7295-118.486 67.8369-118.916ZM43.8281-88.623C48.125-88.7305 57.6587-88.811 72.4292-88.8647 87.1997-88.9184 98.6401-88.9453 106.75-88.9453 114.861-88.9453 120.42-88.8916 123.428-88.7842 126.436-88.6768 128.584-88.4082 129.873-87.9785 131.592-87.334 132.988-86.3135 134.062-84.917 135.137-83.5205 135.674-81.6943 135.674-79.4385 135.674-77.3975 135.244-76.001 134.385-75.249 133.418-74.2822 131.35-73.6645 128.181-73.396 125.012-73.1274 113.437-72.9932 93.457-72.9932 85.6152-72.8857 75.4639-72.832 63.0029-72.832 50.542-72.832 42.4853-72.832 38.833-72.832 33.5693-72.9394 30.1318-73.1543 28.5205-73.4766 27.7686-73.584 27.2314-73.8525 26.9092-74.2822 26.2646-74.9268 25.9424-76.0547 25.9424-77.666 25.9424-80.7812 26.6406-83.0371 28.0371-84.4336 30.293-86.6894 35.5029-88.0859 43.667-88.623ZM60.5859-44.9561C60.2637-45.1709 59.8608-45.2783 59.3774-45.2783 58.894-45.2783 58.3301-45.2246 57.6855-45.1172 55.1074-44.9023 53.3618-44.3384 52.4487-43.4253 51.5356-42.5122 50.4346-40.498 49.1455-37.3828 47.2119-32.334 44.3115-23.7939 40.4443-11.7627 36.5771 0.268554 34.0527 8.43262 32.8711 12.7295 32.8711 12.7295 32.334 14.2334 31.2598 17.2412 31.2598 17.5635 31.0986 17.832 30.7764 18.0469L29.165 19.4971C28.9502 19.7119 28.6816 19.873 28.3594 19.9805 27.0703 20.1953 25.8887 20.3027 24.8145 20.3027 22.8809 20.3027 21.4307 19.8193 20.4639 18.8525 19.7119 18.208 19.2822 17.2949 19.1748 16.1133 19.0674 15.791 19.0137 15.4687 19.0137 15.1465 19.0137 14.0723 19.2554 12.5415 19.7388 10.5542 20.2222 8.56689 21.9141 3.4375 24.8145-4.83398 27.2852-12.998 29.5947-20.5713 31.7432-27.5537 34.3213-36.3623 35.8252-41.8408 36.2549-43.9893L28.6816-44.1504C22.4512-44.1504 18.6377-45.0098 17.2412-46.7285L16.2744-47.8564C15.9521-48.1787 15.791-48.5547 15.791-48.9844L15.791-50.918C15.791-53.4961 16.0059-55.3223 16.4355-56.3965 17.0801-57.6855 18.1543-58.7061 19.6582-59.458 21.5918-60.4248 25.1636-61.0693 30.3735-61.3916 35.5835-61.7139 45.4932-62.0361 60.1025-62.3584 69.8779-62.4658 78.1226-62.6269 84.8364-62.8418 91.5503-63.0566 96.5723-63.1641 99.9023-63.1641 111.182-63.1641 127.349-62.6269 148.403-61.5527 148.94-61.5527 149.37-61.2842 149.692-60.7471L150.82-59.1357C150.928-59.0283 151.116-58.4375 151.384-57.3633 151.653-56.2891 151.841-55.188 151.948-54.0601 152.056-52.9321 152.109-52.207 152.109-51.8848 152.109-49.9512 151.68-48.6621 150.82-48.0176 149.746-47.0508 147.329-46.4868 143.569-46.3257 139.81-46.1645 131.055-46.0303 117.305-45.9228 92.7051-45.8154 79.6533-45.5469 78.1494-45.1172 78.1494-45.0098 78.0957-44.9561 77.9883-44.9561 77.8809-44.9561 77.666-44.7949 77.3437-44.4727 75.1953-42.3242 72.9394-36.2549 70.5762-26.2646 69.2871-21.4307 68.6426-15.0928 68.6426-7.25098 68.6426-2.41699 68.9648 1.07422 69.6094 3.22266 69.6094 3.22266 69.6631 3.22266 69.7705 3.22266 71.2744 8.27148 74.0137 11.8164 77.9883 13.8574 78.9551 14.3945 80.4053 14.6631 82.3389 14.6631 84.2725 14.6631 86.7969 14.3408 89.9121 13.6963 97.3242 12.4072 104.736 9.93652 112.148 6.28418 117.305 3.70605 121.36 1.42334 124.314-0.563965 127.268-2.55127 131.377-6.06934 136.641-11.1182 136.641-11.1182 136.694-11.1182 136.802-11.1182 141.421-15.5225 144.509-18.2349 146.067-19.2554 147.624-20.2759 149.155-20.7861 150.659-20.7861 152.378-20.7861 153.989-20.0342 155.493-18.5303 156.46-17.6709 156.943-16.7041 156.943-15.6299 156.836-11.1182 153.076-5.15625 145.664 2.25586 141.582 6.33789 136.802 10.4199 131.323 14.502 128.208 16.7578 125.227 18.5571 122.38 19.8999 119.534 21.2427 116.714 22.5049 113.921 23.6865 102.534 28.0908 93.3496 30.293 86.3672 30.293 82.5 30.293 78.4717 29.7021 74.2822 28.5205 67.7295 26.6943 62.5195 22.5586 58.6523 16.1133 57.3633 14.6094 56.1816 12.2729 55.1074 9.104 54.0332 5.93506 53.4424 2.30957 53.335-1.77246 53.2275-2.41699 53.1738-3.22266 53.1738-4.18945 53.1738-9.99023 55-21.001 58.6523-37.2217ZM297.451-124.556C300.781-122.622 303.252-120.823 304.863-119.158 306.475-117.493 307.28-115.64 307.28-113.599 307.28-112.632 307.227-111.88 307.119-111.343 306.797-109.302 305.83-107.798 304.219-106.831 303.145-106.079 301.506-105.703 299.304-105.703 297.102-105.703 295.195-106.079 293.584-106.831 289.824-108.55 285.957-111.289 281.982-115.049 280.264-116.768 279.163-118.083 278.679-118.997 278.196-119.91 277.954-120.635 277.954-121.172 277.954-122.891 278.76-124.556 280.371-126.167 281.768-127.563 283.54-128.423 285.688-128.745 285.796-128.745 285.903-128.745 286.011-128.745 288.696-128.745 292.51-127.349 297.451-124.556ZM321.46 11.9238C322.856 12.7832 323.823 14.2065 324.36 16.1938 324.897 18.1812 325.166 19.6582 325.166 20.625 325.166 21.8066 325.005 22.666 324.683 23.2031 324.253 24.1699 323.071 25.2978 321.138 26.5869 316.626 29.7021 313.242 31.2598 310.986 31.2598 310.557 31.2598 310.181 31.2598 309.858 31.2598 305.776 30.5078 300.513 26.9092 294.067 20.4639 291.06 17.3486 288.025 13.186 284.963 7.97607 281.902 2.76611 279.082-2.30957 276.504-7.25098 275.752-8.8623 275.054-10.3125 274.409-11.6016 272.798-9.13086 271.079-6.3916 269.253-3.38379 267.319 0.375976 265.171 3.81348 262.808 6.92871 262.808 6.92871 262.754 6.92871 262.646 6.92871 261.25 8.64746 260.391 10.0977 260.068 11.2793 259.746 12.3535 259.155 13.2666 258.296 14.0186 256.47 15.8447 254.214 16.7578 251.528 16.7578 249.058 16.7578 247.124 16.1133 245.728 14.8242 244.653 13.6426 244.116 12.3535 244.116 10.957 244.116 9.99023 244.385 8.96973 244.922 7.89551 245.029 7.68066 245.137 7.51953 245.244 7.41211L248.145 4.51172C251.152 1.50391 254.912-4.24316 259.424-12.7295 259.424-12.7295 260.122-13.938 261.519-16.355 262.915-18.772 264.258-20.9473 265.547-22.8809L267.48-26.2646 266.353-30.1318 262.485-42.3779C259.263-53.9795 256.174-64.0234 253.22-72.5098 250.266-80.9961 248.252-85.9375 247.178-87.334 247.07-87.334 247.017-87.3877 247.017-87.4951 246.479-87.9248 245.298-88.2471 243.472-88.4619 242.612-88.4619 241.001-88.4619 238.638-88.4619 236.274-88.4619 231.978-88.3545 225.747-88.1396 209.956-87.71 200.395-87.334 197.065-87.0117 196.636-84.9707 196.072-80.8887 195.374-74.7656 194.675-68.6426 194.272-63.7549 194.165-60.1025 194.165-60.1025 194.111-58.9746 194.004-56.7187 196.904-56.8262 199.187-56.9067 200.852-56.9604 202.517-57.0142 207.7-57.0947 216.401-57.2021L228.647-57.2021C228.755-57.2021 229.346-57.0679 230.42-56.7993 231.494-56.5308 232.085-56.3965 232.192-56.3965 236.167-54.0332 239.39-48.6621 241.86-40.2832 241.86-40.2832 241.86-40.2295 241.86-40.1221 242.827-35.7178 243.525-30.1855 243.955-23.5254 243.955-23.418 243.955-23.3643 243.955-23.3643 243.955-23.3643 243.901-22.5317 243.794-20.8667 243.686-19.2017 243.633-18.3154 243.633-18.208 243.096-14.5557 242.827-12.6758 242.827-12.5684 240.249-4.29688 236.704 2.09473 232.192 6.60644 230.044 8.75488 227.573 10.6348 224.78 12.2461 220.591 15.4687 216.938 17.6172 213.823 18.6914 211.353 19.873 209.365 20.9473 207.861 21.9141 207.754 22.0215 207.593 22.0752 207.378 22.0752 206.089 22.6123 204.907 22.8809 203.833 22.8809 202.437 22.8809 200.879 22.5049 199.16 21.7529 197.441 21.001 196.099 20.1416 195.132 19.1748 194.165 18.208 193.682 17.1875 193.682 16.1133 193.682 14.3945 194.272 12.9443 195.454 11.7627 195.991 11.2256 196.716 10.6616 197.629 10.0708 198.542 9.47998 200.879 8.11035 204.639 5.96191 212.158 2.09473 217.422-1.39648 220.43-4.51172 220.43-4.51172 220.537-4.56543 220.752-4.67285 223.975-7.78808 226.23-11.2256 227.52-14.9854 228.164-17.2412 228.54-19.8193 228.647-22.7197 228.647-25.5127 228.433-27.7686 228.003-29.4873 227.573-31.2061 226.66-33.4082 225.264-36.0937 225.264-36.2012 225.237-36.3354 225.183-36.4966 225.129-36.6577 224.888-37.1143 224.458-37.8662 223.921-38.9404 223.276-39.7461 222.524-40.2832 221.772-40.6055 220.269-40.7666 218.013-40.7666 217.476-40.7666 216.938-40.7666 216.401-40.7666 215.542-40.6592 214.79-40.6055 214.145-40.6055 206.948-40.3906 201.765-40.0415 198.596-39.5581 195.427-39.0747 193.359-38.5644 192.393-38.0273 191.963-37.2754 191.479-35.5029 190.942-32.71 190.942-32.71 190.942-32.6562 190.942-32.5488 189.009-24.707 187.29-15.6299 185.786-5.31738 185.142-0.59082 184.604 2.57812 184.175 4.18945 182.563 10.0977 181.704 13.9111 181.597 15.6299 181.597 18.6377 180.737 20.8936 179.019 22.3975 177.837 23.4717 176.548 24.0088 175.151 24.0088 174.399 24.0088 173.594 23.8477 172.734 23.5254 171.875 23.2031 171.123 22.7734 170.479 22.2363 169.512 21.1621 169.028 19.873 169.028 18.3691 169.028 15.1465 170.908 2.73926 174.668-18.8525 176.602-30.8838 177.944-40.0146 178.696-46.2451L180.791-64.7754C181.543-71.2207 182.08-77.8809 182.402-84.7559 182.725-91.6309 182.993-95.686 183.208-96.9214 183.423-98.1567 183.906-99.2041 184.658-100.063 186.592-101.782 189.224-103.018 192.554-103.77 193.306-103.877 205.444-104.414 228.97-105.381 236.06-105.596 240.249-105.757 241.538-105.864 241.645-105.972 241.699-106.348 241.699-106.992 241.699-107.637 241.431-109.436 240.894-112.39 240.356-115.344 240.088-117.439 240.088-118.674 240.088-119.91 240.088-120.742 240.088-121.172 240.41-123.535 241.645-125.146 243.794-126.006 244.976-126.543 246.05-126.812 247.017-126.812 248.413-126.812 249.595-126.274 250.561-125.2 251.206-124.663 251.77-123.723 252.253-122.38 252.737-121.038 253.569-118.54 254.751-114.888 256.255-110.054 257.114-107.1 257.329-106.025L280.693-105.542C301.641-105.327 312.974-104.79 314.692-103.931 317.056-102.749 318.345-100.332 318.56-96.6797 318.56-96.3574 318.56-96.0351 318.56-95.7129 318.56-93.6719 318.076-92.1948 317.109-91.2817 316.143-90.3686 314.853-89.6973 313.242-89.2676 311.953-89.0527 303.306-88.8379 287.3-88.623 275.591-88.5156 268.125-88.3545 264.902-88.1396 264.902-88.0322 264.929-87.8711 264.983-87.6562 265.037-87.4414 265.278-86.6357 265.708-85.2393 266.675-81.6943 267.722-78.2031 268.85-74.7656 269.978-71.3281 271.428-66.6284 273.201-60.6665 274.973-54.7046 276.611-49.4678 278.115-44.9561 278.223-45.2783 278.384-45.6543 278.599-46.084 281.821-51.7773 284.829-56.7725 287.622-61.0693 291.06-66.2256 293.53-69.3677 295.034-70.4956 296.538-71.6235 297.935-72.1875 299.224-72.1875 300.62-72.1875 301.748-71.7578 302.607-70.8984 303.467-70.0391 304.165-68.5351 304.702-66.3867 304.702-66.0644 304.702-65.5273 304.702-64.7754 304.702-61.5527 303.359-58.5986 300.674-55.9131 300.566-55.9131 300.459-55.8057 300.352-55.5908 299.277-54.7314 298.418-53.7109 297.773-52.5293 297.021-50.918 295.303-47.8027 292.617-43.1836 287.783-34.9121 285.151-29.8633 284.722-28.0371 284.722-28.0371 284.614-27.7148 284.399-27.0703L286.655-20.7861C291.06-11.9775 295.571-4.02832 300.19 3.06152 304.595 9.8291 307.656 13.6963 309.375 14.6631 309.697 14.5557 310.02 14.3408 310.342 14.0186 311.523 13.0518 312.678 12.2998 313.806 11.7627 314.934 11.2256 316.196 10.957 317.593 10.957 318.989 10.957 320.225 11.2256 321.299 11.7627 321.406 11.7627 321.46 11.8164 321.46 11.9238ZM450.366-116.66C450.796-116.66 451.387-116.66 452.139-116.66 452.891-116.66 453.992-116.606 455.442-116.499 456.892-116.392 457.886-116.15 458.423-115.774 458.96-115.398 459.39-115.103 459.712-114.888 460.679-113.921 461.162-112.632 461.162-111.021 461.162-108.872 460.518-107.153 459.228-105.864 458.691-105.327 458.101-104.951 457.456-104.736 455.63-103.984 449.346-102.642 438.603-100.708 436.455-100.278 435.112-99.956 434.575-99.7412 434.468-99.7412 434.414-99.6606 434.414-99.4995 434.414-99.3384 434.414-99.2578 434.414-99.2578 433.984-97.3242 433.716-92.7319 433.608-85.4809 433.501-78.23 433.447-72.7783 433.447-69.126 433.447-64.8291 433.555-61.499 433.77-59.1357L434.897-58.9746C436.724-58.7598 444.727-58.4912 458.906-58.1689 470.83-57.7393 477.866-57.4707 480.015-57.3633 482.163-57.2559 483.721-57.0947 484.687-56.8799 485.654-56.665 486.299-56.4502 486.621-56.2353 488.769-54.8389 489.844-52.3144 489.844-48.6621 489.844-46.7285 489.414-45.1709 488.555-43.9893 487.803-43.1299 487.427-42.6465 487.427-42.5391 487.104-42.2168 486.675-42.0557 486.138-42.0557 462.72-42.1631 448.621-42.2168 443.84-42.2168 439.06-42.2168 435.811-42.2168 434.092-42.2168 433.662-40.0684 433.447-35.9326 433.447-29.8096 433.447-15.2002 434.038-5.80078 435.22-1.61133 435.435-0.429688 435.703 0.322266 436.025 0.644531 436.777 0.859375 438.603 1.07422 441.504 1.28906L464.224 1.93359C473.247 2.14844 478.887 2.41699 481.143 2.73926 482.002 2.84668 482.593 3.00781 482.915 3.22266 484.956 4.51172 485.977 6.55273 485.977 9.3457 485.977 12.0312 485.278 14.0186 483.882 15.3076 483.13 16.167 482.217 16.5967 481.143 16.5967 478.887 16.8115 472.79 16.9189 462.854 16.9189 452.917 16.9189 444.351 16.9189 437.153 16.9189 408.686 16.7041 393.164 16.4893 390.586 16.2744 388.008 16.0596 386.208 15.7373 385.188 15.3076 384.167 14.8779 383.389 14.3945 382.852 13.8574 381.24 12.1387 380.435 10.5811 380.435 9.18457 380.435 7.89551 381.213 6.47217 382.771 4.91455 384.329 3.35693 386.343 2.30957 388.813 1.77246 391.284 1.23535 396.87 0.859375 405.571 0.644531 414.272 0.429687 419.375 0.214844 420.879 0L420.879-3.70605C420.879-13.8037 420.503-24.5996 419.751-36.0937 419.536-39.5312 419.348-41.5723 419.187-42.2168 419.026-42.8613 418.838-43.291 418.623-43.5059 418.516-43.5059 417.871-43.5059 416.689-43.5059 415.508-43.5059 411.265-43.3984 403.96-43.1836 399.556-43.0762 395.635-43.0225 392.197-43.0225 385-43.0225 380.327-43.1836 378.179-43.5059 376.997-43.7207 376.138-44.2041 375.601-44.9561 374.311-46.2451 373.667-48.3936 373.667-51.4014 373.667-52.583 373.909-53.8452 374.392-55.188 374.875-56.5308 375.332-57.417 375.762-57.8467 376.299-58.3838 376.836-58.7061 377.373-58.8135 377.91-58.9209 383.55-59.082 394.292-59.2969 407.612-59.5117 415.83-59.8877 418.945-60.4248 419.16-62.6807 419.321-68.1055 419.429-76.6992 419.644-87.1191 419.805-92.8125 419.912-93.7793L420.073-96.0351C414.917-94.9609 408.525-92.9199 400.898-89.9121 396.816-88.4082 394.507-87.6562 393.97-87.6562 393.97-87.6562 393.97-87.6562 393.97-87.6562 391.177-87.6562 388.76-88.6768 386.719-90.7178 385.645-91.792 385.107-93.1348 385.107-94.7461 385.107-97.3242 386.128-99.7412 388.169-101.997 388.169-101.997 388.169-101.997 388.169-101.997 390.317-103.931 392.949-104.897 396.064-104.897 397.676-104.897 402.778-106.133 411.372-108.604 423.726-112.041 436.724-114.727 450.366-116.66ZM366.577-117.949C368.081-118.916 369.478-119.399 370.767-119.399 373.022-119.399 374.902-118.647 376.406-117.144 377.695-115.854 378.34-114.297 378.34-112.471 378.34-110.859 377.722-109.436 376.487-108.201 375.251-106.965 373.13-105.435 370.122-103.608 369.263-103.071 368.726-102.642 368.511-102.319 367.222-98.1299 366.389-93.2422 366.013-87.6562 365.637-82.0703 365.449-73.0469 365.449-60.5859 365.449-48.125 365.557-35.2612 365.771-21.9946 365.986-8.72803 366.094-0.161133 366.094 3.70605 366.094 7.57324 366.094 10.4736 366.094 12.4072 365.986 16.5967 365.449 19.1211 364.482 19.9805 363.73 20.9473 362.603 21.4307 361.099 21.4307 360.561 21.4307 359.917 21.377 359.165 21.2695 356.909 20.7324 355.298 19.4971 354.331 17.5635 354.116 17.1338 353.874 14.5557 353.606 9.8291 353.337 5.10254 352.988-2.79297 352.559-13.8574 351.807-36.5234 351.431-55.1074 351.431-69.6094 351.431-74.4434 351.484-78.3643 351.592-81.3721 351.699-84.3799 351.753-86.582 351.753-87.9785 351.753-89.5898 351.699-90.8252 351.592-91.6846 351.27-91.3623 351.001-91.0669 350.786-90.7983 350.571-90.5298 350.464-90.3955 350.464-90.3955 346.704-86.958 343.535-85.2393 340.957-85.2393 340.527-85.2393 340.151-85.2393 339.829-85.2393 336.821-85.6689 334.834-87.0654 333.867-89.4287 333.545-90.2881 333.384-91.0937 333.384-91.8457 333.384-93.3496 333.921-94.8535 334.995-96.3574 335.21-96.6797 335.586-97.1094 336.123-97.6465 336.66-98.1836 337.949-99.1504 339.99-100.547 342.353-102.051 344.77-103.823 347.241-105.864 347.886-106.509 349.846-107.852 353.123-109.893 356.399-111.934 358.091-113.008 358.198-113.115 363.247-115.908 365.906-117.412 366.174-117.627 366.443-117.842 366.577-117.949 366.577-117.949ZM594.974-126.973C596.478-126.973 597.982-126.65 599.486-126.006 600.667-125.469 601.473-124.287 601.903-122.461L602.386-121.655C611.195-121.87 616.807-121.978 619.224-121.978 621.641-121.978 625.911-121.79 632.034-121.414 638.157-121.038 643.099-120.474 646.859-119.722 648.792-119.292 650.135-118.594 650.887-117.627 651.854-116.23 652.337-113.599 652.337-109.731 652.337-108.872 652.283-108.281 652.176-107.959 651.746-106.992 650.887-106.348 649.598-106.025 648.631-105.703 647.1-105.488 645.006-105.381 642.911-105.273 635.794-105.166 623.656-105.059 604.212-104.951 593.577-104.683 591.751-104.253 591.751-104.253 591.671-104.226 591.51-104.172 591.348-104.119 591.026-103.85 590.543-103.367 590.059-102.883 589.281-101.836 588.206-100.225 586.595-97.6465 585.198-95.9814 584.017-95.2295 583.265-94.7998 582.432-94.585 581.519-94.585 580.606-94.585 579.586-94.8535 578.458-95.3906 577.33-95.9277 576.282-96.6797 575.316-97.6465 574.349-98.6133 573.677-99.3921 573.302-99.9829 572.926-100.574 572.738-101.084 572.738-101.514 572.738-102.373 573.248-103.555 574.268-105.059 575.289-106.562 576.873-108.711 579.022-111.504 582.03-115.371 584.393-118.433 586.112-120.688 587.938-123.159 589.173-124.717 589.818-125.361 590.999-126.436 592.718-126.973 594.974-126.973ZM543.25-55.4297 543.573-25.7812C543.573-1.93359 542.337 13.9111 539.867 21.7529 538.792 25.4053 537.288 27.6074 535.355 28.3594 534.495 28.7891 532.83 29.0039 530.36 29.0039L527.137 29.0039C526.6 29.0039 526.197 28.8696 525.929 28.6011 525.66 28.3325 525.526 28.0908 525.526 27.876 524.559 25.2978 524.075 23.8745 524.076 23.606 524.075 23.3374 524.129 23.0957 524.237 22.8809L525.848 19.0137C526.922 16.1133 527.647 13.8574 528.023 12.2461 528.399 10.6348 528.695 7.86865 528.909 3.94775 529.124 0.0268556 529.232-4.99512 529.232-11.1182 529.232-30.3467 529.071-42.4853 528.748-47.5342 525.955-44.9561 522.679-40.874 518.919-35.2881 513.978-27.7686 510.379-22.8809 508.123-20.625 506.619-19.1211 505.303-18.1274 504.176-17.644 503.048-17.1606 502.188-16.9189 501.597-16.9189 501.007-16.9189 500.228-17.1875 499.261-17.7246 498.079-18.1543 496.951-18.9331 495.877-20.061 494.803-21.189 494.266-22.2632 494.266-23.2837 494.266-24.3042 494.669-25.5127 495.474-26.9092 496.28-28.3057 497.65-30.1855 499.583-32.5488 501.517-34.9121 503.826-37.8125 506.512-41.25 513.817-51.6699 518.704-58.7598 521.175-62.5195 509.466-62.1973 503.612-62.0361 503.612-62.0361 503.074-62.0361 502.591-62.251 502.161-62.6807L500.872-64.292C499.368-66.2256 498.616-68.1592 498.617-70.0928 498.616-72.2412 499.368-74.0137 500.872-75.4101 501.732-76.2695 502.806-76.9141 504.095-77.3437 506.351-78.2031 511.024-78.8476 518.114-79.2773 520.477-79.3848 522.464-79.5459 524.076-79.7607L522.948-80.5664C519.725-82.9297 517.952-84.7021 517.63-85.8838 517.2-86.8506 516.878-88.1396 516.663-89.751 516.341-91.6846 516.18-92.9199 516.18-93.457 516.18-94.209 516.234-94.7192 516.341-94.9878 516.448-95.2563 516.69-95.5786 517.066-95.9546 517.442-96.3306 518.248-96.7871 519.483-97.3242 520.719-97.8613 521.873-98.1299 522.948-98.1299 524.237-98.1299 526.439-97.4316 529.554-96.0351L532.293-94.7461C533.905-95.8203 534.764-96.3574 534.871-96.3574 538.416-98.1836 543.411-101.406 549.857-106.025 546.204-106.025 539.625-106.079 530.118-106.187 520.611-106.294 514.783-106.401 512.635-106.509 510.272-106.616 508.714-107.046 507.962-107.798 506.995-108.765 506.512-110.43 506.512-112.793 506.619-117.09 507.855-119.775 510.218-120.85 513.548-122.568 523.162-123.428 539.061-123.428 550.985-123.428 558.612-123.052 561.942-122.3 563.123-121.978 564.385-121.145 565.728-119.802 567.071-118.459 567.93-117.251 568.306-116.177 568.682-115.103 568.87-113.545 568.87-111.504 568.87-111.504 568.87-111.45 568.87-111.343 568.548-107.153 566.776-103.447 563.553-100.225 561.297-97.9687 558.021-95.498 553.724-92.8125 549.32-89.8047 546.365-87.6562 544.862-86.3672 545.399-85.8301 546.151-85.0513 547.117-84.0308 548.084-83.0102 549.024-82.3389 549.937-82.0166 550.85-81.6943 552.757-81.4258 555.658-81.2109 563.499-80.6738 568.87-80.0293 571.771-79.2773 575.101-78.418 577.786-76.9678 579.827-74.9268 582.62-72.1338 584.017-68.8574 584.017-65.0976 584.017-63.1641 583.533-61.2305 582.567-59.2969 581.922-57.793 580.794-55.8594 579.183-53.4961 577.572-50.918 576.229-49.1455 575.155-48.1787 573.651-46.5674 571.986-45.7617 570.159-45.7617 569.407-45.7617 568.548-45.9228 567.581-46.2451 566.615-46.5674 565.755-47.1045 565.003-47.8564 563.929-49.0381 563.392-50.3809 563.392-51.8848 563.392-52.959 564.198-55.0537 565.809-58.1689 566.668-60.1025 567.098-61.1768 567.098-61.3916 567.098-61.7139 566.722-62.251 565.97-63.0029 564.681-63.3252 560.653-63.5937 553.885-63.8086L543.573-63.9697C543.358-62.1435 543.25-59.2969 543.25-55.4297ZM638.48-102.48C639.447-102.48 640.413-101.89 641.38-100.708 642.562-99.2041 643.206-98.0225 643.314-97.1631 643.314-96.7334 643.314-96.3574 643.314-96.0351 643.314-94.209 642.615-92.5976 641.219-91.2012 639.823-89.8047 637.406-87.7637 633.968-85.0781 628.919-81.1035 625.643-78.2568 624.139-76.5381 623.709-76.1084 623.28-75.6787 622.85-75.249 624.891-73.6377 630.638-69.8242 640.091-63.8086 643.314-61.875 645.408-60.3442 646.375-59.2163 647.342-58.0884 647.825-56.3428 647.826-53.9795 647.825-51.1865 646.912-48.8769 645.086-47.0508 643.905-45.8691 642.615-45.2783 641.219-45.2783 640.789-45.2783 640.306-45.332 639.769-45.4394 638.587-45.7617 633.538-48.7158 624.622-54.3018 617.425-58.9209 612.269-61.6601 609.154-62.5195 608.939-62.6269 608.67-62.6807 608.348-62.6807 608.026-62.6807 607.435-62.439 606.576-61.9556 605.716-61.4722 603.433-59.4311 599.727-55.8325 596.021-52.2339 593.631-50.1392 592.557-49.5483 591.483-48.9575 590.462-48.6621 589.495-48.6621 587.454-48.6621 585.789-49.3066 584.5-50.5957 583.426-51.5625 582.889-52.7441 582.889-54.1406 582.889-55.5371 583.372-56.9336 584.339-58.3301 585.306-60.0488 587.508-62.6807 590.946-66.2256 593.201-68.374 595.189-70.1465 596.908-71.543 596.37-72.1875 595.699-72.9126 594.893-73.7183 594.088-74.5239 593.685-74.9805 593.685-75.0879 590.677-78.2031 588.743-80.459 587.884-81.8555 586.702-83.5742 586.112-85.5078 586.112-87.6562 586.112-90.7715 587.132-92.7588 589.173-93.6182 590.247-94.1553 591.268-94.4238 592.235-94.4238 593.201-94.4238 594.115-94.2627 594.974-93.9404 596.8-93.2959 599.11-91.7383 601.903-89.2676 603.621-87.8711 605.233-86.6626 606.737-85.6421 608.24-84.6216 609.422-83.8965 610.282-83.4668 611.571-84.2187 613.612-85.6689 616.405-87.8174 616.512-87.8174 619.251-89.8047 624.622-93.7793 630.423-97.8613 633.968-100.278 635.257-101.03 636.868-101.997 637.943-102.48 638.48-102.48ZM590.301-41.7334C590.838-43.5596 591.617-44.9829 592.638-46.0034 593.658-47.0239 595.028-47.5342 596.746-47.5342 597.713-47.5342 598.626-47.2925 599.486-46.8091 600.345-46.3257 601.043-45.8154 601.58-45.2783 602.44-44.4189 603.084-43.2373 603.514-41.7334 603.729-41.0889 604.158-40.7129 604.803-40.6055 605.985-40.3906 610.55-40.1221 618.499-39.7998 633.216-39.0478 642.078-37.9199 645.086-36.416 648.416-34.6973 650.672-29.9707 651.854-22.2363 651.961-21.377 652.015-20.2222 652.015-18.772 652.015-17.3218 651.8-15.2539 651.37-12.5684 650.833-8.70117 650.216-3.35693 649.517 3.46436 648.819 10.2856 648.121 14.9585 647.423 17.4829 646.724 20.0073 645.247 22.7734 642.992 25.7812 641.595 27.5 640.897 28.4131 640.897 28.5205 640.574 28.8428 640.145 29.0039 639.608 29.0039L634.935 29.0039C632.464 29.0039 630.531 28.8965 629.134 28.6816 627.2 28.3594 626.073 27.6611 625.75 26.5869 625.643 26.4795 625.589 26.3184 625.589 26.1035 625.589 25.5664 625.858 24.8145 626.395 23.8477 626.932 22.8809 627.899 21.4307 629.295 19.4971 632.518 14.9853 634.344 11.4941 634.774 9.02344 635.203 7.08984 635.687 3.54492 636.224-1.61133 637.083-9.66797 637.513-15.5225 637.513-19.1748 637.513-19.9268 637.406-20.4102 637.191-20.625 636.439-21.0547 634.962-21.4844 632.76-21.9141 630.557-22.3437 626.824-22.6123 621.561-22.7197 616.297-22.8271 612.43-22.8809 609.959-22.8809 607.489-22.8809 605.716-22.8271 604.642-22.7197 602.386-22.3975 601.043-21.9141 600.614-21.2695 600.076-20.3027 599.512-17.4023 598.922-12.5684 598.331-7.73437 597.713-3.38379 597.069 0.483398 594.92 11.8701 593.04 20.249 591.429 25.6201L590.946 27.5537C590.838 27.876 590.65 28.1714 590.382 28.4399 590.113 28.7085 589.71 28.8428 589.173 28.8428L580.955 28.8428C580.418 28.8428 580.015 28.7085 579.747 28.4399 579.478 28.1714 579.29 27.8223 579.183 27.3926 578.968 26.1035 578.861 25.083 578.861 24.3311 578.861 21.9678 579.613 17.0264 581.117 9.50683 583.909-3.06152 585.306-12.7295 585.306-19.4971 585.306-19.8193 585.306-20.0879 585.306-20.3027L585.306-21.2695C579.183-20.9473 576.121-20.7861 576.121-20.7861 575.369-20.7861 574.832-21.1084 574.51-21.7529L573.704-23.3643C573.275-24.1162 573.06-25.1099 573.06-26.3452 573.06-27.5806 573.49-29.0576 574.349-30.7764 574.886-32.1728 575.853-33.3008 577.249-34.1602 578.646-35.0195 581.009-36.0937 584.339-37.3828 586.917-38.3496 588.475-39.1016 589.012-39.6387 589.549-40.1758 589.979-40.874 590.301-41.7334Z" transform="matrix(1 0 0 1 118.68 208)"/></g></g></g><path d="M757.5 767C757.5 664.551 840.551 581.5 943 581.5L2076 581.5C2178.45 581.5 2261.5 664.551 2261.5 767L2261.5 767C2261.5 869.449 2178.45 952.5 2076 952.5L943 952.5C840.551 952.5 757.5 869.449 757.5 767Z" stroke="#000000" stroke-width="4.58333" stroke-miterlimit="8" fill="#D9D9D9" fill-rule="evenodd"/><text font-family="JasonHandwriting4,JasonHandwriting4_MSFontService,sans-serif" font-weight="600" font-size="165" transform="matrix(1 0 0 1 1178.96 807)">完成任務</text></g></svg>